<?xml version="1.0" encoding="utf-8"?>
<!-- Generator: Adobe Illustrator 25.0.1, SVG Export Plug-In . SVG Version: 6.00 Build 0)  -->
<svg version="1.1" id="Layer_1" xmlns="http://www.w3.org/2000/svg" xmlns:xlink="http://www.w3.org/1999/xlink" x="0px" y="0px"
	 viewBox="0 0 50 39" style="enable-background:new 0 0 50 39;" xml:space="preserve">
<style type="text/css">
	.st0{display:none;}
	.st1{display:inline;}
	.st2{fill-rule:evenodd;clip-rule:evenodd;fill:#808282;}
	.st3{fill-rule:evenodd;clip-rule:evenodd;fill:#101A1A;fill-opacity:0.2628;}
	.st4{fill-rule:evenodd;clip-rule:evenodd;fill:#5E6363;}
	.st5{fill:#DE962A;}
</style>
<desc>Created with Sketch.</desc>
<g id="WiP" class="st0">
	<g id="Artboard" transform="translate(-90.000000, -38.000000)" class="st1">
		<g id="Group" transform="translate(90.000000, 38.000000)">
			<polygon id="Rectangle" class="st2" points="3,14 25,26.5 47,14 40.9,39 9.1,39 			"/>
			<polygon id="Triangle" class="st3" points="25,8 40,39 10,39 			"/>
			<circle id="Oval" class="st4" cx="2" cy="9" r="2"/>
			<circle id="Oval_1_" class="st4" cx="25" cy="2" r="2"/>
			<circle id="Oval_2_" class="st4" cx="48" cy="9" r="2"/>
		</g>
	</g>
</g>
<path class="st5" d="M37.9,2.5c-2.8,1-5,2.6-6.6,4.1c-0.6,0.6-1.1,1.1-1.5,1.6L25,13c-0.1-1.5-0.2-3-0.2-4.3l0-0.1
	c-0.1-1.8-0.2-3.2,0.4-3.6c0.1-0.1,0.2-0.1,0.2-0.1l0.3,0.1c0.2,0.3,0.6,0.4,0.9,0.4c0.1,0,0.1,0,0.2,0l0.1,0l1.5,1c0,0,0,0,0,0l0,0
	c0.1,0,0.2,0.1,0.2,0.1c0.2,0,0.5-0.2,0.5-0.5c0-0.1,0-0.2-0.1-0.3c0,0-1.1-1.6-1.1-1.6c-0.1-0.6-0.6-1.1-1.2-1.1
	c-1.1-0.2-2,0-2.6,0.6c-1.4,1-1.3,2.9-1.1,5.2l0,0.1c0.1,1.4,0.2,2.8,0.2,4.3c-0.1,0-0.1,0-0.2,0c-2.6,0-4.7,2.1-4.7,4.7
	c0,0.2,0,0.4,0,0.6c0.1,2,1.3,3.8,3.1,4.6l1.2,5.3l0.6,0v-4.5l1.3,0.6l0.9,3.9l0.6,0v-3.3l5.2,2.3l-2.1-7.7l9.1-9.4
	c0.7-0.1,1.4-0.3,2.1-0.6c5.8-2,9.3-7.1,9.3-7.1S43.7,0.5,37.9,2.5z M22.7,12.2l-2.9-3c-0.4-0.5-0.9-1-1.5-1.6
	c-1.6-1.5-3.8-3.2-6.6-4.1C5.9,1.6,0,3.5,0,3.5s3.5,5.1,9.3,7.1c0.7,0.2,1.4,0.4,2.1,0.6l6.1,6.4C17.6,14.7,19.9,12.4,22.7,12.2z"/>
<g>
	<g>
		<path class="st5" d="M6.8,35.1h1.5v1.2c0,1-0.5,1.4-1.5,1.4c-1.1,0-1.5-0.4-1.5-1.4v-1.8c0-0.9,0.4-1.3,1.5-1.3s1.5,0.4,1.5,1.3
			H7.5c0-0.4-0.1-0.6-0.7-0.6c-0.6,0-0.7,0.3-0.7,0.7v1.7c0,0.4,0.1,0.7,0.7,0.7c0.6,0,0.8-0.2,0.8-0.7v-0.4H6.8V35.1z"/>
		<path class="st5" d="M9.3,36.3v-0.8c0-0.9,0.4-1.3,1.3-1.3c0.9,0,1.3,0.4,1.3,1.3v0.8c0,0.9-0.4,1.3-1.3,1.3
			C9.8,37.7,9.3,37.3,9.3,36.3z M11.2,36.3v-0.7c0-0.4-0.1-0.7-0.5-0.7s-0.5,0.2-0.5,0.7v0.7c0,0.4,0.1,0.7,0.5,0.7
			S11.2,36.7,11.2,36.3z"/>
		<path class="st5" d="M13.1,33.2h0.8v3.2c0,0.4,0.1,0.5,0.4,0.5v0.8c-0.9,0-1.2-0.3-1.2-1.2V33.2z"/>
		<path class="st5" d="M17.2,37.6l-0.1-0.4c-0.1,0.2-0.4,0.4-0.8,0.4c-0.7,0-1.1-0.4-1.1-1.3v-0.9c0-0.8,0.4-1.3,1.1-1.3
			c0.3,0,0.6,0.1,0.7,0.3v-1.3h0.8v4.4H17.2z M16,35.5v0.8c0,0.5,0.2,0.7,0.5,0.7c0.4,0,0.5-0.3,0.5-0.7v-0.8c0-0.4-0.2-0.6-0.5-0.6
			C16.2,34.9,16,35.1,16,35.5z"/>
		<path class="st5" d="M21.7,36.6c0,0.7-0.4,1.1-1.3,1.1c-0.9,0-1.3-0.4-1.3-1.3v-0.8c0-0.9,0.4-1.3,1.3-1.3c0.9,0,1.3,0.4,1.3,1.3
			v0.7h-1.8v0.1c0,0.5,0.2,0.7,0.5,0.7c0.4,0,0.5-0.1,0.5-0.4H21.7z M19.8,35.6h1.1c0-0.4-0.1-0.7-0.5-0.7
			C19.9,34.9,19.8,35.1,19.8,35.6z"/>
		<path class="st5" d="M22.9,34.2h0.7l0,0.3c0.2-0.3,0.5-0.4,0.8-0.4c0.6,0,1.1,0.3,1.1,1.3v2.1h-0.8v-2.1c0-0.4-0.2-0.6-0.5-0.6
			c-0.3,0-0.5,0.1-0.5,0.6v2.1h-0.8V34.2z"/>
		<path class="st5" d="M30,35.1h1.5v1.2c0,1-0.5,1.4-1.5,1.4c-1.1,0-1.5-0.4-1.5-1.4v-1.8c0-0.9,0.4-1.3,1.5-1.3
			c1.1,0,1.5,0.4,1.5,1.3h-0.8c0-0.4-0.1-0.6-0.7-0.6c-0.6,0-0.7,0.3-0.7,0.7v1.7c0,0.4,0.1,0.7,0.7,0.7c0.6,0,0.8-0.2,0.8-0.7v-0.4
			H30V35.1z"/>
		<path class="st5" d="M32.6,36.3v-0.8c0-0.9,0.4-1.3,1.3-1.3s1.3,0.4,1.3,1.3v0.8c0,0.9-0.4,1.3-1.3,1.3S32.6,37.3,32.6,36.3z
			 M34.4,36.3v-0.7c0-0.4-0.1-0.7-0.5-0.7c-0.4,0-0.5,0.2-0.5,0.7v0.7c0,0.4,0.1,0.7,0.5,0.7C34.3,37,34.4,36.7,34.4,36.3z"/>
		<path class="st5" d="M36.2,36.3v-0.8c0-0.9,0.4-1.3,1.3-1.3c0.9,0,1.3,0.4,1.3,1.3v0.8c0,0.9-0.4,1.3-1.3,1.3
			C36.6,37.7,36.2,37.3,36.2,36.3z M38,36.3v-0.7c0-0.4-0.1-0.7-0.5-0.7c-0.4,0-0.5,0.2-0.5,0.7v0.7c0,0.4,0.1,0.7,0.5,0.7
			C37.9,37,38,36.7,38,36.3z"/>
		<path class="st5" d="M41.6,35.3c0-0.3-0.2-0.4-0.5-0.4c-0.3,0-0.5,0.1-0.5,0.4c0,0.4,0.4,0.3,0.8,0.4c0.5,0.1,0.9,0.3,0.9,0.9
			c0,0.7-0.6,1.1-1.3,1.1c-0.8,0-1.3-0.4-1.3-1.1h0.8c0,0.2,0.1,0.4,0.5,0.4c0.3,0,0.5-0.2,0.5-0.3c0-0.3-0.4-0.3-0.8-0.3
			c-0.5-0.1-1-0.3-1-0.9c0-0.8,0.5-1.1,1.3-1.1c0.8,0,1.2,0.5,1.2,1.1H41.6z"/>
		<path class="st5" d="M46,36.6c0,0.7-0.4,1.1-1.3,1.1c-0.9,0-1.3-0.4-1.3-1.3v-0.8c0-0.9,0.4-1.3,1.3-1.3c0.9,0,1.3,0.4,1.3,1.3
			v0.7h-1.8v0.1c0,0.5,0.2,0.7,0.5,0.7c0.4,0,0.5-0.1,0.5-0.4H46z M44.1,35.6h1.1c0-0.4-0.1-0.7-0.5-0.7
			C44.2,34.9,44.1,35.1,44.1,35.6z"/>
	</g>
</g>
</svg>
